# xmcd CD database file
#
# Track frame offsets:
#	150
#	12452
#	23516
#	34662
#	46329
#	58998
#	73452
#	84066
#	95833
#	109096
#	120890
#	132555
#	146374
#	157422
#	168767
#	181320
#	195160
#	207938
#	220934
#	234031
#
# Disc length: 3293 seconds
#
# Revision: 0
# Processed by: cddbd v1.5.2PL0 Copyright (c) Steve Scherf et al.
# Submitted via: CDex 1.70beta2
#
DISCID=100cdb14
DTITLE=B.B King - 20 Légendes du Blues CD 04
DYEAR=2008
DGENRE=Blues
TTITLE0=Miss Martha King
TTITLE1=When Your Baby Packs Up
TTITLE2=B.B Blues
TTITLE3=You Didn't Want Me
TTITLE4=Hard Working Woman
TTITLE5=Why Did You Leave Me ?
TTITLE6=Fine Looking Woman
TTITLE7=Shake It Up And Go
TTITLE8=Wake Up This Morning
TTITLE9=Take A Swing With Me
TTITLE10=She's A Mean Woman
TTITLE11=You Know Y Love You
TTITLE12=Gotta Find My Baby
TTITLE13=She's Dynamite
TTITLE14=Highway Bound
TTITLE15=Three O'Clock Blues
TTITLE16=Mistreated Woman
TTITLE17=Someday, Domewhere
TTITLE18=Please Love Me
TTITLE19=Boogie Woogie Woman
EXTD=YEAR: 2008
EXTT0=
EXTT1=
EXTT2=
EXTT3=
EXTT4=
EXTT5=
EXTT6=
EXTT7=
EXTT8=
EXTT9=
EXTT10=
EXTT11=
EXTT12=
EXTT13=
EXTT14=
EXTT15=
EXTT16=
EXTT17=
EXTT18=
EXTT19=
PLAYORDER=
